<?xml version="1.0" encoding="utf-8"?>
<!-- Generated by IcoMoon.io -->
<!DOCTYPE svg PUBLIC "-//W3C//DTD SVG 1.1//EN" "http://www.w3.org/Graphics/SVG/1.1/DTD/svg11.dtd">
<svg version="1.1" xmlns="http://www.w3.org/2000/svg" xmlns:xlink="http://www.w3.org/1999/xlink" width="20" height="20" viewBox="0 0 20 20">
<path d="M19.731 9.573c-0.021-0.6-0.090-1.187-0.214-1.754h-3.978v-0.702h1.403v-0.702h-2.806v-0.702h2.105v-0.702h-0.702v-0.702h-1.403v-0.702h0.702v-0.702h-1.403v-0.702h0.702v-1.147c-1.277-0.608-2.701-0.958-4.21-0.958-5.307 0-9.619 4.211-9.805 9.472h19.61zM6.418 2.206c1.55 0 2.806 1.257 2.806 2.806s-1.257 2.806-2.806 2.806c-1.55 0-2.807-1.256-2.807-2.806s1.256-2.806 2.807-2.806z"></path>
<path d="M12.031 19.045h-0.702v-0.702h2.105v-0.702h0.702v-0.702h2.105v-0.702h0.702v-0.702h-1.403v-0.702h-2.105v-0.702h1.403v-0.702h2.806v-0.702h-1.403v-0.702h3.277c0.124-0.567 0.192-1.154 0.214-1.754h-19.61c0.186 5.262 4.498 9.472 9.805 9.472 0.724 0 1.427-0.084 2.105-0.232v-0.47z"></path>
</svg>
