<?xml version="1.0" encoding="utf-8"?>
<!-- Generated by IcoMoon.io -->
<!DOCTYPE svg PUBLIC "-//W3C//DTD SVG 1.1//EN" "http://www.w3.org/Graphics/SVG/1.1/DTD/svg11.dtd">
<svg version="1.1" xmlns="http://www.w3.org/2000/svg" xmlns:xlink="http://www.w3.org/1999/xlink" width="24" height="28" viewBox="0 0 24 28">
<path d="M12 12.281h11.328q0.187 1.047 0.187 2 0 3.391-1.422 6.055t-4.055 4.164-6.039 1.5q-2.453 0-4.672-0.945t-3.828-2.555-2.555-3.828-0.945-4.672 0.945-4.672 2.555-3.828 3.828-2.555 4.672-0.945q4.688 0 8.047 3.141l-3.266 3.141q-1.922-1.859-4.781-1.859-2.016 0-3.727 1.016t-2.711 2.758-1 3.805 1 3.805 2.711 2.758 3.727 1.016q1.359 0 2.5-0.375t1.875-0.938 1.281-1.281 0.805-1.359 0.352-1.219h-6.813v-4.125z"></path>
</svg>
