<?xml version="1.0" encoding="utf-8"?>
<!-- Generated by IcoMoon.io -->
<!DOCTYPE svg PUBLIC "-//W3C//DTD SVG 1.1//EN" "http://www.w3.org/Graphics/SVG/1.1/DTD/svg11.dtd">
<svg version="1.1" xmlns="http://www.w3.org/2000/svg" xmlns:xlink="http://www.w3.org/1999/xlink" width="20" height="20" viewBox="0 0 20 20">
<path d="M0 3.93h20v12.145h-20v-12.145zM1.43 5.359v9.285h17.145v-9.285h-17.145zM7.301 10.164l-1.543 0.191 1.086 1.148-1.008 0.68-0.758-1.418-0.762 1.418-1.016-0.68 1.094-1.148-1.551-0.191 0.402-1.063 1.426 0.57-0.23-1.602h1.258l-0.227 1.602 1.414-0.57 0.414 1.063zM12.559 10.164l-1.543 0.191 1.086 1.148-1.008 0.68-0.758-1.418-0.766 1.422-1.016-0.68 1.094-1.148-1.551-0.191 0.402-1.063 1.426 0.57-0.23-1.602h1.258l-0.227 1.602 1.414-0.57 0.418 1.059zM13.395 13.93v-7.855h0.895v7.855h-0.895z"></path>
</svg>
