<?xml version="1.0" encoding="utf-8"?>
<!-- Generated by IcoMoon.io -->
<!DOCTYPE svg PUBLIC "-//W3C//DTD SVG 1.1//EN" "http://www.w3.org/Graphics/SVG/1.1/DTD/svg11.dtd">
<svg version="1.1" xmlns="http://www.w3.org/2000/svg" xmlns:xlink="http://www.w3.org/1999/xlink" width="23" height="20" viewBox="0 0 23 20">
<path d="M10.818 0.036c0 0-0.175 0.007-0.262 0.020-1.119 0.145-2.188 0.647-3.012 1.418-0.659 0.614-1.154 1.408-1.408 2.272-0.307 1.024-0.277 2.145 0.095 3.146 0.275 0.742 0.722 1.418 1.296 1.963 0.105 0.1 0.222 0.19 0.325 0.295-0.337 0.569-0.692 1.129-1.036 1.696-0.347 0.559-0.687 1.126-1.039 1.681-0.385-0.017-0.777 0.022-1.131 0.18-0.467 0.195-0.869 0.549-1.106 0.999-0.255 0.472-0.325 1.041-0.182 1.558 0.127 0.482 0.43 0.914 0.837 1.204 0.484 0.35 1.106 0.497 1.696 0.415 0.617-0.082 1.196-0.425 1.553-0.936 0.412-0.574 0.507-1.356 0.245-2.010-0.062-0.177-0.172-0.33-0.26-0.492 0.654-1.081 1.324-2.153 1.983-3.229 0.295-0.454 0.572-0.921 0.857-1.381 0.102-0.175 0.22-0.342 0.312-0.522-0.192-0.070-0.397-0.11-0.587-0.195-0.767-0.307-1.411-0.914-1.751-1.668-0.262-0.582-0.342-1.244-0.215-1.87 0.147-0.762 0.594-1.458 1.216-1.923 0.579-0.437 1.299-0.682 2.023-0.684 0.901-0.010 1.808 0.35 2.435 0.999 0.554 0.559 0.894 1.331 0.914 2.12 0.015 0.355-0.060 0.704-0.147 1.046 0.584 0.157 1.171 0.297 1.756 0.454 0.070 0.020 0.14 0.030 0.212 0.040 0.212-0.692 0.275-1.431 0.175-2.148-0.152-1.104-0.692-2.15-1.486-2.929-0.699-0.697-1.601-1.176-2.56-1.401-0.265-0.067-0.802-0.12-0.802-0.12-0.305-0.022-0.619-0.022-0.944 0.003zM11.287 3.103c-0.292 0.005-0.582 0.060-0.852 0.17-0.577 0.232-1.054 0.709-1.266 1.296-0.13 0.35-0.155 0.734-0.092 1.101 0.107 0.617 0.504 1.169 1.044 1.486 0.417 0.255 0.916 0.355 1.401 0.325 0.047 0.062 0.092 0.127 0.13 0.197 0.692 1.191 1.403 2.375 2.088 3.571 0.22 0.375 0.442 0.749 0.662 1.124 0.062 0.102 0.112 0.215 0.2 0.297 0.407-0.407 0.904-0.732 1.461-0.894 1.044-0.322 2.237-0.11 3.094 0.572 0.494 0.39 0.879 0.919 1.071 1.518 0.195 0.592 0.205 1.246 0.025 1.843-0.275 0.939-1.014 1.716-1.92 2.073-1.059 0.43-2.335 0.282-3.259-0.395-0.167-0.112-0.307-0.257-0.459-0.387-0.155 0.112-0.277 0.262-0.417 0.39-0.337 0.335-0.684 0.657-1.016 0.996 0.754 0.774 1.753 1.296 2.812 1.501 0.185 0.037 0.509 0.070 0.559 0.072 0.252 0.022 0.739 0.027 0.974 0 0.077-0.008 0.459-0.037 0.684-0.087 1.039-0.215 2.010-0.742 2.752-1.503 0.739-0.744 1.241-1.723 1.401-2.762 0.185-1.171-0.055-2.407-0.687-3.416-0.587-0.949-1.483-1.701-2.515-2.12-1.109-0.457-2.367-0.532-3.526-0.227-0.15 0.037-0.295 0.092-0.442 0.132-0.222-0.347-0.42-0.709-0.632-1.061-0.397-0.677-0.797-1.356-1.194-2.033-0.062-0.107-0.13-0.212-0.182-0.325 0.185-0.282 0.335-0.589 0.385-0.926 0.087-0.519-0.027-1.069-0.32-1.508-0.26-0.402-0.654-0.712-1.104-0.879-0.275-0.095-0.567-0.145-0.859-0.14zM4.245 9.708c-0.936 0.205-1.82 0.662-2.517 1.321-0.747 0.699-1.286 1.621-1.506 2.62-0.047 0.197-0.115 0.529-0.115 0.602-0.035 0.385-0.035 0.584 0 0.906 0.017 0.107 0.077 0.527 0.147 0.784 0.255 1.046 0.862 1.998 1.688 2.687 0.809 0.674 1.815 1.106 2.862 1.231 1.261 0.152 2.575-0.145 3.646-0.832 0.852-0.547 1.541-1.343 1.95-2.27 0.165-0.357 0.267-0.737 0.355-1.119 0.147-0.012 0.297-0.008 0.444-0.003 0.929 0.012 1.855 0.032 2.784 0.042 0.285 0.015 0.569-0.005 0.852 0.025 0.157 0.29 0.35 0.564 0.612 0.769 0.462 0.377 1.074 0.559 1.668 0.504 0.454-0.037 0.899-0.212 1.256-0.497 0.42-0.332 0.709-0.824 0.792-1.353 0.085-0.542-0.050-1.111-0.365-1.558-0.252-0.357-0.609-0.639-1.016-0.799-0.569-0.227-1.226-0.217-1.788 0.022-0.44 0.185-0.819 0.509-1.059 0.921-0.030 0.050-0.060 0.097-0.092 0.145-0.574 0.010-1.149-0.015-1.726-0.020-0.714-0.015-1.431-0.025-2.145-0.035-0.617-0.027-1.234-0.020-1.85-0.037-0.157-0.003-0.317-0.005-0.477 0 0.025 0.145 0.067 0.287 0.095 0.43 0.12 0.679 0.005 1.398-0.33 2.005-0.479 0.904-1.411 1.533-2.42 1.683-1.181 0.195-2.452-0.292-3.186-1.244-0.435-0.557-0.677-1.261-0.662-1.968 0.007-0.619 0.215-1.231 0.569-1.738 0.435-0.622 1.091-1.079 1.823-1.279 0.075-0.020 0.152-0.042 0.227-0.065-0.162-0.624-0.345-1.254-0.517-1.883z"></path>
</svg>
