<?xml version="1.0" encoding="utf-8"?>
<!-- Generated by IcoMoon.io -->
<!DOCTYPE svg PUBLIC "-//W3C//DTD SVG 1.1//EN" "http://www.w3.org/Graphics/SVG/1.1/DTD/svg11.dtd">
<svg version="1.1" xmlns="http://www.w3.org/2000/svg" xmlns:xlink="http://www.w3.org/1999/xlink" width="20" height="20" viewBox="0 0 20 20">
<path d="M10 3.875c1.75 0 3.25 0.75 4.375 1.875l2.75-2.75c-1.75-1.875-4.25-2.875-7.125-2.875-5.5 0-10 4.5-10 10h3.875c0-3.5 2.75-6.25 6.125-6.25v0z"></path>
<path d="M16.125 10c0 3.375-2.75 6.125-6.125 6.125-1.75 0-3.25-0.75-4.375-1.875l-2.75 2.75c1.75 1.875 4.25 2.875 7.125 2.875 5.5 0 10-4.5 10-10h-3.875v0.125z"></path>
</svg>
