<?xml version="1.0" encoding="utf-8"?>
<!-- Generated by IcoMoon.io -->
<!DOCTYPE svg PUBLIC "-//W3C//DTD SVG 1.1//EN" "http://www.w3.org/Graphics/SVG/1.1/DTD/svg11.dtd">
<svg version="1.1" xmlns="http://www.w3.org/2000/svg" xmlns:xlink="http://www.w3.org/1999/xlink" width="26" height="28" viewBox="0 0 26 28">
<path d="M13.004 12.286q3.174 0 5.933-0.576t4.353-1.701v2.277q0 0.924-1.379 1.714t-3.75 1.252-5.156 0.462-5.156-0.462-3.75-1.252-1.379-1.714v-2.277q1.594 1.125 4.353 1.701t5.933 0.576zM13.004 22.571q3.174 0 5.933-0.576t4.353-1.701v2.277q0 0.924-1.379 1.714t-3.75 1.252-5.156 0.462-5.156-0.462-3.75-1.252-1.379-1.714v-2.277q1.594 1.125 4.353 1.701t5.933 0.576zM13.004 17.429q3.174 0 5.933-0.576t4.353-1.701v2.277q0 0.924-1.379 1.714t-3.75 1.252-5.156 0.462-5.156-0.462-3.75-1.252-1.379-1.714v-2.277q1.594 1.125 4.353 1.701t5.933 0.576zM13.004 2q2.786 0 5.156 0.462t3.75 1.252 1.379 1.714v1.714q0 0.924-1.379 1.714t-3.75 1.252-5.156 0.462-5.156-0.462-3.75-1.252-1.379-1.714v-1.714q0-0.924 1.379-1.714t3.75-1.252 5.156-0.462z"></path>
</svg>
